# xmcd
#
# Track frame offsets:
#	150
#	13319
#	27460
#	41900
#	55205
#	67118
#	81717
#	95992
#	109251
#	123208
#	136701
#	151150
#	164998
#	176415
#
# Disc length: 2511 seconds
#
# Revision: 1
# Processed by: cddbd v1.5.2PL0 Copyright (c) Steve Scherf et al.
# Submitted via: EZCDAudioConverter 1.2.3.1
#
DISCID=cf09cd0e
DTITLE=Bille Holiday - Summertime
DYEAR=2005
DGENRE=Blues
TTITLE0=Summertime
TTITLE1=Carelessly
TTITLE2=Gloomy Sunday
TTITLE3=I cover the waterfront
TTITLE4=Ghost of yesterday
TTITLE5=Solitude
TTITLE6=Strange fruit
TTITLE7=God bless the child
TTITLE8=The man I love
TTITLE9=Body and soul
TTITLE10=Easy to love
TTITLE11=I'll never be the same
TTITLE12=How could you
TTITLE13=Billie's blues
EXTD=
EXTT0=
EXTT1=
EXTT2=
EXTT3=
EXTT4=
EXTT5=
EXTT6=
EXTT7=
EXTT8=
EXTT9=
EXTT10=
EXTT11=
EXTT12=
EXTT13=
PLAYORDER=
